<?xml version="1.0" encoding="UTF-8"?>
<!DOCTYPE svg PUBLIC "-//W3C//DTD SVG 1.1//EN" "http://www.w3.org/Graphics/SVG/1.1/DTD/svg11.dtd">
<!-- Creator: CorelDRAW X7 -->
<svg xmlns="http://www.w3.org/2000/svg" xml:space="preserve" width="105.271mm" height="20.4852mm" version="1.1" style="shape-rendering:geometricPrecision; text-rendering:geometricPrecision; image-rendering:optimizeQuality; fill-rule:evenodd; clip-rule:evenodd"
viewBox="0 0 10026 1951"
 xmlns:xlink="http://www.w3.org/1999/xlink">
 <defs>
  <style type="text/css">
   <![CDATA[
    .fil3 {fill:#18978F}
    .fil2 {fill:#FEB139}
    .fil1 {fill:#18978F;fill-rule:nonzero}
    .fil4 {fill:#FEB139;fill-rule:nonzero}
    .fil0 {fill:#FEB139;fill-rule:nonzero}
   ]]>
  </style>
 </defs>
 <g id="Layer_x0020_1">
  <metadata id="CorelCorpID_0Corel-Layer"/>
  <g id="_319632856">
   <g>
    <path class="fil0" d="M377 1925l0 -1009 -377 0 0 -134 906 0 0 134 -377 0 0 1009 -152 0zm688 0l0 -1143 507 0c102,0 180,10 233,30 53,21 95,57 127,109 31,52 47,110 47,172 0,82 -26,150 -79,206 -52,55 -133,90 -243,106 40,19 71,38 92,57 44,40 86,91 125,152l198 311 -190 0 -151 -238c-44,-69 -80,-121 -109,-158 -28,-36 -54,-61 -77,-76 -22,-14 -45,-24 -69,-30 -17,-4 -45,-6 -84,-6l-175 0 0 508 -152 0zm152 -639l325 0c69,0 123,-7 162,-21 39,-14 68,-37 88,-69 20,-31 31,-65 31,-102 0,-54 -20,-99 -59,-134 -39,-35 -101,-52 -185,-52l-362 0 0 378zm873 639l439 -1143 167 0 465 1143 -172 0 -132 -346 -482 0 -124 346 -161 0zm330 -469l389 0 -119 -317c-36,-97 -63,-176 -82,-239 -16,74 -37,148 -63,220l-125 336zm1069 469l-442 -1143 164 0 297 831c24,66 44,129 60,187 18,-63 38,-125 61,-187l309 -831 154 0 -446 1143 -157 0zm693 -556c0,-190 51,-338 153,-446 102,-107 234,-161 395,-161 106,0 201,26 286,76 85,50 149,121 194,211 44,90 67,192 67,306 0,116 -24,220 -71,311 -47,92 -113,161 -199,208 -86,47 -178,71 -278,71 -107,0 -204,-27 -289,-78 -84,-52 -149,-123 -192,-213 -44,-90 -66,-185 -66,-285zm157 2c0,138 37,246 111,325 74,80 167,119 279,119 114,0 207,-40 281,-120 73,-80 110,-193 110,-340 0,-93 -16,-174 -47,-243 -32,-70 -78,-123 -138,-161 -61,-38 -129,-58 -204,-58 -107,0 -199,37 -276,111 -78,73 -116,196 -116,367z"/>
    <path class="fil1" d="M6348 1091l0 -284 -909 0 0 1118 377 0 0 -357 467 0 0 -285 -467 0 0 -192 532 0zm120 834l882 0 0 -292 -505 0 0 -826 -377 0 0 1118zm986 0l377 0 0 -1118 -377 0 0 1118zm930 -284l0 -147 472 0 0 -272 -472 0 0 -131 538 0 0 -284 -909 0 0 1118 930 0 0 -284 -559 0zm1121 310c347,0 521,-173 521,-377 0,-412 -618,-301 -618,-435 0,-38 35,-70 145,-70 97,0 201,27 312,83l113 -273c-117,-66 -272,-97 -422,-97 -346,0 -521,169 -521,377 0,417 619,303 619,444 0,38 -39,60 -146,60 -123,0 -263,-40 -369,-102l-121 275c112,69 300,115 487,115z"/>
   </g>
   <polygon class="fil2" points="7454,808 7831,808 7831,1925 7454,1925 "/>
   <polygon class="fil3" points="7454,436 7828,436 7828,747 7454,747 "/>
   <g>
    <polygon class="fil4" points="8844,335 7838,645 8654,464 8674,542 "/>
    <polygon class="fil4" points="8438,267 7894,514 8309,284 8288,243 "/>
    <polygon class="fil1" points="7519,714 8882,282 8927,398 9167,57 8773,0 8817,114 "/>
   </g>
  </g>
 </g>
</svg>
